<svg width="549" height="836" viewBox="0 0 549 836" fill="none" xmlns="http://www.w3.org/2000/svg">
<g clip-path="url(#clip0_209_356)">
<path d="M394.026 473.072L394.073 472.993L394.119 472.913C413.211 439.822 432.107 406.398 450.809 372.64L450.809 372.64C524.462 239.675 428.964 72.9451 275.883 71.8332L275.881 71.8332C120.826 70.7235 21.7469 239.32 98.0426 373.914C167.855 497.143 237.748 620.332 307.724 743.48L273.661 803.44C198.225 671.386 123.031 539.281 48.0811 407.125L48.0802 407.124C-47.2032 239.173 60.5094 31.8041 250.422 13.2738L250.426 13.2734C447.21 -5.98765 594.676 201.072 513.677 381.719C510.379 389.044 497.324 412.644 473.832 453.474L473.827 453.483C443.022 507.126 412.366 560.678 381.859 614.139L299.95 471.323C299.946 471.316 299.943 471.31 299.94 471.304C298.642 469.014 297.959 466.426 297.958 463.792C297.958 463.791 297.958 463.79 297.958 463.789V347.486L369.648 472.871L369.706 472.972L369.766 473.072C372.311 477.337 376.915 479.96 381.896 479.96C386.877 479.96 391.481 477.337 394.026 473.072Z" fill="black" stroke="#EFF1F7" stroke-width="25"/>
</g>
<defs>
<clipPath id="clip0_209_356">
<rect width="549" height="836" fill="white"/>
</clipPath>
</defs>
</svg>
