<svg width="400" height="500" viewBox="0 0 400 500" fill="none" xmlns="http://www.w3.org/2000/svg">
<g clip-path="url(#clip0_156_314)">
<path fill-rule="evenodd" clip-rule="evenodd" d="M100.002 10.2829V97.9709C100.002 98.0847 99.9909 98.196 99.9697 98.3039V156.069L150.207 156.121V78.7922C150.049 78.4322 149.961 78.0342 149.962 77.6158L150.039 33.4489C150.041 31.8399 151.351 30.5348 152.96 30.5378L247.127 30.7018C248.737 30.7048 250.041 32.0138 250.038 33.6238L249.965 75.2339H249.97V75.8589V156.069L299.935 156.121V83.062L299.612 11.4419L288.992 -0.279053H108.861L100.002 10.2829ZM301.185 99.6255V156.747L300.559 157.372L249.344 157.319L248.72 156.694V80.1726C248.244 80.507 247.665 80.703 247.04 80.7018L152.873 80.5378C152.359 80.5369 151.876 80.4027 151.457 80.1682V156.747L150.831 157.372L99.3441 157.319L98.7197 156.694V99.6566C98.5706 99.6985 98.4137 99.7209 98.252 99.7209H14.5969L0.00195312 116.962V487.658L9.81693 499.721H388.988L399.999 489.412L399.874 114.961L390.698 99.7209H301.752C301.554 99.7209 301.363 99.6873 301.185 99.6255Z" fill="black"/>
</g>
<defs>
<clipPath id="clip0_156_314">
<rect width="400" height="500" fill="white"/>
</clipPath>
</defs>
</svg>
