<svg width="400" height="500" viewBox="0 0 400 500" fill="none" xmlns="http://www.w3.org/2000/svg">
<g clip-path="url(#clip0_156_322)">
<path fill-rule="evenodd" clip-rule="evenodd" d="M100 98.25V10.562L108.859 0H288.99L299.61 11.721L300 98.25C300 99.21 300.79 100 301.75 100H390.696L399.872 115.24L399.997 489.691L388.986 500H9.815L0 487.937V117.241L14.595 100H98.25C99.21 100 100 99.21 100 98.25ZM250.038 53.004C250.041 51.394 248.737 50.085 247.127 50.082L152.96 49.918C151.351 49.915 150.041 51.22 150.039 52.829L149.962 96.996C149.959 98.606 151.263 99.915 152.873 99.918L247.04 100.082C248.649 100.085 249.959 98.78 249.961 97.171L250.038 53.004ZM300 151.875V198.125C300 199.154 299.154 200 298.125 200H251.875C250.846 200 250 199.154 250 198.125V151.875C250 150.846 249.154 150 248.125 150H151.875C150.846 150 150 150.846 150 151.875V198.125C150 199.154 149.154 200 148.125 200H101.875C100.846 200 100 199.154 100 198.125V151.875C100 150.846 99.154 150 98.125 150H51.875C50.846 150 50 150.846 50 151.875V448.125C50 449.154 50.846 450 51.875 450H348.125C349.154 450 350 449.154 350 448.125V151.875C350 150.846 349.154 150 348.125 150H301.875C300.846 150 300 150.846 300 151.875Z" fill="black"/>
</g>
<defs>
<clipPath id="clip0_156_322">
<rect width="400" height="500" fill="white"/>
</clipPath>
</defs>
</svg>
