<svg width="332" height="271" viewBox="0 0 332 271" fill="none" xmlns="http://www.w3.org/2000/svg">
<g clip-path="url(#clip0_156_334)">
<path d="M34.7997 2.26673C34.1331 3.60007 26.2664 20.0001 17.3331 38.6667L1.06641 72.5334L1.99974 91.3334L2.93307 110L83.0664 190.267C127.2 234.533 163.866 270.667 164.666 270.667C165.466 270.667 203.333 233.333 249.066 187.6L332.133 104.533L331.2 89.6001L330.266 74.8001L314.666 37.7334L299.2 0.666734L251.866 0.266734L204.666 6.72638e-05L184.8 23.3334C174 36.1334 164.933 46.6667 164.666 46.6667C164.4 46.6667 155.2 36.1334 144.133 23.3334L123.866 6.72638e-05H79.9997C39.5997 6.72638e-05 35.9997 0.133401 34.7997 2.26673Z" fill="black"/>
</g>
<defs>
<clipPath id="clip0_156_334">
<rect width="332" height="271" fill="white"/>
</clipPath>
</defs>
</svg>
