<svg width="435" height="359" viewBox="0 0 435 359" fill="none" xmlns="http://www.w3.org/2000/svg">
<g clip-path="url(#clip0_156_341)">
<path fill-rule="evenodd" clip-rule="evenodd" d="M267.516 0.50004L215.6 61.25C215.339 61.553 214.958 61.728 214.558 61.728C214.158 61.728 213.777 61.553 213.516 61.25L161.058 0.45904C160.793 0.16304 160.413 -0.00496046 160.016 3.954e-05H46.156C45.663 -0.00996046 45.201 0.24504 44.947 0.66704L0 93.917L0.626 145.36L213.6 357.792C214.13 358.307 214.986 358.307 215.516 357.792L434.373 139.115L434.231 101.726L391.652 0.66704C391.398 0.24504 390.936 -0.00996046 390.444 3.954e-05H268.558C268.154 0.00603954 267.773 0.18904 267.516 0.50004ZM131.766 208.109C158.571 235.062 185.363 262.002 212.433 288.625C212.95 289.149 213.656 289.445 214.391 289.445C215.127 289.445 215.833 289.149 216.35 288.625L381.391 123.125C382.44 122.079 382.647 120.441 381.891 119.167L357.349 52C356.603 50.759 355.256 49.998 353.808 50H293.183C291.862 50.002 290.615 50.565 289.766 51.542L216.433 136.209C215.974 136.743 215.304 137.051 214.6 137.051C213.895 137.051 213.225 136.743 212.766 136.209L138.85 51.625C137.947 50.592 136.639 49.999 135.266 50H82.3573C81.0633 50.003 79.8604 50.684 79.1913 51.792L46.5163 120.292C45.9103 121.317 46.0823 122.641 46.9333 123.5C75.4487 151.482 103.614 179.802 131.766 208.109Z" fill="black"/>
</g>
<defs>
<clipPath id="clip0_156_341">
<rect width="435" height="359" fill="white"/>
</clipPath>
</defs>
</svg>
