<svg width="582" height="582" viewBox="0 0 582 582" fill="none" xmlns="http://www.w3.org/2000/svg">
<g clip-path="url(#clip0_156_347)">
<path fill-rule="evenodd" clip-rule="evenodd" d="M581.594 50.0679V531.6L531.594 581.6H50.0625L0.0625 531.6V50.0679L50.0625 0.0678711H531.594L581.594 50.0679ZM531.594 50.0679H50.0625V531.6H531.594V50.0679Z" fill="black"/>
<path fill-rule="evenodd" clip-rule="evenodd" d="M258.051 102.361V241.54L245.551 254.04H106.372L93.8721 241.54V102.361L106.372 89.8608H245.551L258.051 102.361ZM245.551 102.361H106.372V241.54H245.551V102.361Z" fill="black"/>
<path fill-rule="evenodd" clip-rule="evenodd" d="M511.597 209.526L506.815 204.744L283.663 204.721L279.143 210.911V242.299L283.639 248L507.234 247.931L511.2 242.266L511.597 209.526Z" fill="black"/>
<path fill-rule="evenodd" clip-rule="evenodd" d="M376.795 132.472L374.786 127.689L281.042 127.667L279.143 133.857V165.245L281.032 170.946L374.962 170.877L376.628 165.211L376.795 132.472Z" fill="black"/>
<path fill-rule="evenodd" clip-rule="evenodd" d="M511.597 295.639L502.937 290.856L98.8695 290.834L90.6855 297.024V328.412L98.8265 334.113L503.697 334.044L510.878 328.379L511.597 295.639Z" fill="black"/>
<path fill-rule="evenodd" clip-rule="evenodd" d="M511.597 369.439L502.937 364.656L98.8695 364.634L90.6855 370.824V402.211L98.8265 407.912L503.697 407.843L510.878 402.178L511.597 369.439Z" fill="black"/>
<path fill-rule="evenodd" clip-rule="evenodd" d="M511.597 443.238L502.937 438.455L98.8695 438.433L90.6855 444.623V476.011L98.8265 481.712L503.697 481.643L510.878 475.978L511.597 443.238Z" fill="black"/>
</g>
<defs>
<clipPath id="clip0_156_347">
<rect width="582" height="582" fill="white"/>
</clipPath>
</defs>
</svg>
