<svg width="428" height="426" viewBox="0 0 428 426" fill="none" xmlns="http://www.w3.org/2000/svg">
<g clip-path="url(#clip0_156_389)">
<path fill-rule="evenodd" clip-rule="evenodd" d="M426.516 219.578L428.285 209.582L218.712 -0.032959L208.653 1.53604L179.172 31.017L178.04 40.594L388.115 250.54L397.161 248.944L426.516 219.578Z" fill="black"/>
<path fill-rule="evenodd" clip-rule="evenodd" d="M218.314 0.131104H209.33L-0.285156 209.704L1.28384 219.763L30.7639 249.244L40.3419 250.376L250.288 40.3011L248.691 31.2551L218.314 0.131104Z" fill="black"/>
<path fill-rule="evenodd" clip-rule="evenodd" d="M364.74 375.235L358.387 368.882L61.9757 368.853L55.9727 377.075V418.766L61.9447 426.339L358.944 426.248L364.212 418.723L364.74 375.235Z" fill="black"/>
<path d="M55.9385 381.5L55.9388 227.5L58.4997 201L208.5 34L364.658 183V381.5H55.9385Z" fill="black"/>
</g>
<defs>
<clipPath id="clip0_156_389">
<rect width="428" height="426" fill="white"/>
</clipPath>
</defs>
</svg>
