<svg width="423" height="280" viewBox="0 0 423 280" fill="none" xmlns="http://www.w3.org/2000/svg">
<g clip-path="url(#clip0_156_369)">
<path d="M6.94043 0.915955L6.97443 -0.0730591L414.54 -0.144043C414.587 -0.143043 414.635 -0.133051 414.679 -0.115051C414.86 -0.0370513 414.948 0.171938 414.873 0.348938C414.854 0.392938 414.825 0.432942 414.79 0.465942L212.278 190.4L210.396 190.419L6.94043 0.915955Z" fill="black"/>
<path d="M422.196 272.835L281.22 140.106V139.646L422.22 6.67578L422.696 6.68274L422.75 272.846V272.858L422.196 272.835Z" fill="black"/>
<path d="M0.829987 8.71588L140.846 138.793L140.847 139.58L0.933014 273.115L0.25 273.109V273.106L0.332001 8.71289L0.829987 8.71588Z" fill="black"/>
<path d="M413.69 280.416L8.5 280.216L8.508 279.699L147.986 146.418L149.12 146.416L207.278 199.499L216.69 199.466L273.29 146.626H274.01L413.701 279.923L413.69 280.416Z" fill="black"/>
</g>
<defs>
<clipPath id="clip0_156_369">
<rect width="423" height="280" fill="white"/>
</clipPath>
</defs>
</svg>
