<svg width="3030" height="3680" viewBox="0 0 3030 3680" fill="none" xmlns="http://www.w3.org/2000/svg">
<g clip-path="url(#clip0_243_351)">
<path fill-rule="evenodd" clip-rule="evenodd" d="M173.158 742.01C173.158 702.59 196.417 666.877 232.475 650.944L1452.14 111.965C1477.44 100.785 1506.25 100.635 1531.67 111.548L2788.57 651.273C2825.14 666.977 2848.84 702.956 2848.84 742.76V2269.16C2848.84 2296.15 2837.88 2321.99 2818.48 2340.75L1562.77 3554.56C1523.48 3592.54 1460.92 3591.75 1422.6 3552.8L201.746 2311.86C183.425 2293.24 173.158 2268.16 173.158 2242.04V742.005V742.01ZM333.237 781.431V2217.26L1494.64 3397.77L2688.76 2243.49V782.631L1492.72 269.044L333.227 781.431H333.237Z" fill="black" stroke="black" stroke-width="104.17" stroke-miterlimit="2" stroke-linejoin="round"/>
<path d="M1898.87 1313.59C1898.87 1526.59 1723.59 1701.87 1510.59 1701.87C1297.59 1701.87 1122.31 1526.59 1122.31 1313.59C1122.31 1100.59 1297.59 925.311 1510.59 925.311C1723.59 925.311 1898.87 1100.59 1898.87 1313.59Z" stroke="black" stroke-width="170.83" stroke-miterlimit="2" stroke-linejoin="round"/>
<path d="M1944.73 1905.31L2202.37 2248.43C2202.8 2249.03 2092.83 2332.27 2092.83 2332.27C2092.23 2332.7 1874.34 2046.81 1874.34 2046.81C1873.67 2045.91 1872.62 2045.39 1871.51 2045.39H1149.9C1148.79 2045.39 1147.74 2045.91 1147.07 2046.81C1147.07 2046.81 928.601 2334.61 927.051 2333.44C927.051 2333.44 819.176 2247.98 819.634 2247.37L1076.09 1905.31C1076.76 1904.42 1077.8 1903.9 1078.92 1903.9H1941.9C1943.01 1903.9 1944.06 1904.42 1944.73 1905.31Z" fill="black" stroke="black" stroke-width="58.33" stroke-miterlimit="2" stroke-linejoin="round"/>
</g>
<defs>
<clipPath id="clip0_243_351">
<rect width="3030" height="3680" fill="white"/>
</clipPath>
</defs>
</svg>
