<svg width="489" height="452" viewBox="0 0 489 452" fill="none" xmlns="http://www.w3.org/2000/svg">
<g clip-path="url(#clip0_156_376)">
<path d="M397.584 300.25L488.626 421.5C488.779 421.713 449.917 451.125 449.917 451.125C449.705 451.278 372.709 350.25 372.709 350.25C372.473 349.935 372.102 349.75 371.709 349.75H116.709C116.316 349.75 115.945 349.935 115.709 350.25C115.709 350.25 38.5065 451.953 37.9585 451.542C37.9585 451.542 -0.162479 421.341 0.000521238 421.125L90.6255 300.25C90.8605 299.935 91.2315 299.75 91.6255 299.75H396.584C396.977 299.75 397.348 299.935 397.584 300.25Z" fill="black"/>
<path fill-rule="evenodd" clip-rule="evenodd" d="M244.167 274.417C319.437 274.417 381.376 212.479 381.376 137.208C381.376 61.938 319.437 0 244.167 0C168.897 0 106.959 61.938 106.959 137.208C106.959 212.479 168.897 274.417 244.167 274.417ZM331.375 137.25C331.375 185.414 292.331 224.458 244.167 224.458C196.003 224.458 156.959 185.414 156.959 137.25C156.959 89.0863 196.003 50.042 244.167 50.042C292.331 50.042 331.375 89.0863 331.375 137.25Z" fill="black"/>
</g>
<defs>
<clipPath id="clip0_156_376">
<rect width="489" height="452" fill="white"/>
</clipPath>
</defs>
</svg>
