<svg width="484" height="476" viewBox="0 0 484 476" fill="none" xmlns="http://www.w3.org/2000/svg">
<g clip-path="url(#clip0_156_383)">
<path fill-rule="evenodd" clip-rule="evenodd" d="M180.938 0.46875C280.958 0.46875 362.162 81.6718 362.162 181.692C362.162 281.713 280.958 362.916 180.938 362.916C80.9179 362.916 -0.286133 281.713 -0.286133 181.692C-0.286133 81.6718 80.9179 0.46875 180.938 0.46875ZM180.938 59.5538C248.348 59.5538 303.076 114.282 303.076 181.692C303.076 249.103 248.348 303.831 180.938 303.831C113.528 303.831 58.7989 249.103 58.7989 181.692C58.7989 114.282 113.528 59.5538 180.938 59.5538Z" fill="black"/>
<path fill-rule="evenodd" clip-rule="evenodd" d="M481.93 446.391L484.286 437.849L326.703 280.228L318.125 282.422L290.813 309.734L289.027 317.87L447.002 475.724L454.733 473.596L481.93 446.391Z" fill="black"/>
</g>
<defs>
<clipPath id="clip0_156_383">
<rect width="484" height="476" fill="white"/>
</clipPath>
</defs>
</svg>
