<svg width="2880" height="3680" viewBox="0 0 2880 3680" fill="none" xmlns="http://www.w3.org/2000/svg">
<g clip-path="url(#clip0_243_346)">
<path fill-rule="evenodd" clip-rule="evenodd" d="M109.158 742.01C109.158 702.59 132.417 666.877 168.475 650.944L1388.14 111.965C1413.44 100.785 1442.25 100.635 1467.67 111.548L2724.57 651.273C2761.14 666.977 2784.84 702.956 2784.84 742.76V2269.16C2784.84 2296.15 2773.88 2321.99 2754.48 2340.75L1498.77 3554.56C1459.48 3592.54 1396.92 3591.75 1358.6 3552.8L137.746 2311.86C119.425 2293.24 109.158 2268.16 109.158 2242.04V742.005V742.01ZM269.237 781.431V2217.26L1430.64 3397.77L2624.76 2243.49V782.631L1428.72 269.044L269.227 781.431H269.237Z" fill="black" stroke="black" stroke-width="154.17" stroke-miterlimit="2" stroke-linejoin="round"/>
<path d="M1227.25 922.881H1666.74V1221.99H1227.25V922.881ZM1227.25 1359.13H1666.74V2505.91H1227.25V1359.13Z" fill="black"/>
</g>
<defs>
<clipPath id="clip0_243_346">
<rect width="2880" height="3680" fill="white"/>
</clipPath>
</defs>
</svg>
